<svg xmlns="http://www.w3.org/2000/svg" xmlns:xlink="http://www.w3.org/1999/xlink" width="320" zoomAndPan="magnify" viewBox="0 0 240 56.249996" height="75" preserveAspectRatio="xMidYMid meet" version="1.0"><defs><g/><clipPath id="71c44ddeed"><path d="M 2.898438 2.433594 L 53.226562 2.433594 L 53.226562 52.761719 L 2.898438 52.761719 Z M 2.898438 2.433594 " clip-rule="nonzero"/></clipPath></defs><g fill="#ffc416" fill-opacity="1"><g transform="translate(56.944265, 44.359184)"><g><path d="M 14.03125 -16.984375 C 15.644531 -16.242188 16.878906 -15.164062 17.734375 -13.75 C 18.585938 -12.332031 19.015625 -10.71875 19.015625 -8.90625 C 19.015625 -7 18.5625 -5.378906 17.65625 -4.046875 C 16.75 -2.722656 15.570312 -1.71875 14.125 -1.03125 C 12.6875 -0.34375 11.15625 0 9.53125 0 C 9.53125 0 9.515625 0 9.484375 0 L 9.484375 -5.515625 C 9.515625 -5.515625 9.53125 -5.515625 9.53125 -5.515625 C 10.539062 -5.515625 11.425781 -5.820312 12.1875 -6.4375 C 12.957031 -7.0625 13.34375 -7.882812 13.34375 -8.90625 C 13.34375 -9.675781 13.144531 -10.328125 12.75 -10.859375 C 12.351562 -11.398438 11.863281 -11.820312 11.28125 -12.125 C 10.695312 -12.425781 10.113281 -12.59375 9.53125 -12.625 C 9.394531 -12.625 8.878906 -12.664062 7.984375 -12.75 C 7.097656 -12.84375 6.09375 -13.144531 4.96875 -13.65625 C 3.382812 -14.394531 2.160156 -15.421875 1.296875 -16.734375 C 0.429688 -18.046875 0 -19.59375 0 -21.375 C 0 -23.289062 0.453125 -24.9375 1.359375 -26.3125 C 2.265625 -27.6875 3.441406 -28.742188 4.890625 -29.484375 C 6.347656 -30.222656 7.894531 -30.59375 9.53125 -30.59375 C 11.28125 -30.59375 12.859375 -30.226562 14.265625 -29.5 C 15.671875 -28.78125 16.785156 -27.765625 17.609375 -26.453125 C 18.441406 -25.140625 18.867188 -23.613281 18.890625 -21.875 C 18.921875 -21.820312 18.890625 -21.757812 18.796875 -21.6875 C 18.710938 -21.613281 18.601562 -21.578125 18.46875 -21.578125 L 13.6875 -21.578125 C 13.59375 -21.578125 13.5 -21.613281 13.40625 -21.6875 C 13.3125 -21.757812 13.265625 -21.820312 13.265625 -21.875 C 13.242188 -22.976562 12.863281 -23.789062 12.125 -24.3125 C 11.382812 -24.832031 10.519531 -25.09375 9.53125 -25.09375 C 8.476562 -25.09375 7.578125 -24.78125 6.828125 -24.15625 C 6.078125 -23.53125 5.703125 -22.601562 5.703125 -21.375 C 5.703125 -20.28125 6.097656 -19.445312 6.890625 -18.875 C 7.679688 -18.300781 8.5625 -18.015625 9.53125 -18.015625 C 9.601562 -18.015625 9.851562 -18 10.28125 -17.96875 C 10.71875 -17.945312 11.273438 -17.863281 11.953125 -17.71875 C 12.628906 -17.582031 13.320312 -17.335938 14.03125 -16.984375 Z M 14.03125 -16.984375 "/></g></g></g><g fill="#ffc416" fill-opacity="1"><g transform="translate(76.907514, 44.359184)"><g><path d="M 10.296875 -30.59375 C 10.546875 -30.59375 11.050781 -30.5625 11.8125 -30.5 C 12.582031 -30.4375 13.457031 -30.257812 14.4375 -29.96875 C 15.414062 -29.675781 16.378906 -29.203125 17.328125 -28.546875 C 18.273438 -27.898438 19.054688 -27.003906 19.671875 -25.859375 C 20.296875 -24.710938 20.609375 -23.234375 20.609375 -21.421875 C 20.609375 -19.910156 20.378906 -18.640625 19.921875 -17.609375 C 19.460938 -16.578125 18.859375 -15.726562 18.109375 -15.0625 C 17.359375 -14.40625 16.5625 -13.882812 15.71875 -13.5 C 14.875 -13.113281 14.0625 -12.835938 13.28125 -12.671875 C 12.507812 -12.515625 11.847656 -12.414062 11.296875 -12.375 C 10.753906 -12.332031 10.421875 -12.3125 10.296875 -12.3125 L 5.734375 -12.3125 L 5.734375 -0.34375 C 5.734375 -0.113281 5.609375 0 5.359375 0 L 0.375 0 C 0.125 0 0 -0.113281 0 -0.34375 L 0 -17.984375 L 10.296875 -17.984375 C 10.492188 -17.984375 10.828125 -18.003906 11.296875 -18.046875 C 11.773438 -18.097656 12.285156 -18.226562 12.828125 -18.4375 C 13.378906 -18.644531 13.84375 -18.984375 14.21875 -19.453125 C 14.601562 -19.921875 14.796875 -20.578125 14.796875 -21.421875 C 14.796875 -22.265625 14.597656 -22.925781 14.203125 -23.40625 C 13.804688 -23.894531 13.332031 -24.242188 12.78125 -24.453125 C 12.238281 -24.671875 11.734375 -24.8125 11.265625 -24.875 C 10.796875 -24.945312 10.472656 -24.984375 10.296875 -24.984375 L 0 -24.984375 L 0 -30.25 C 0 -30.476562 0.125 -30.59375 0.375 -30.59375 Z M 10.296875 -30.59375 "/></g></g></g><g fill="#ffc416" fill-opacity="1"><g transform="translate(98.553492, 44.359184)"><g><path d="M 14.53125 -5.703125 L 14.53125 0 L 0.421875 0 C 0.140625 0 0 -0.113281 0 -0.34375 L 0 -30.25 C 0 -30.476562 0.140625 -30.59375 0.421875 -30.59375 L 14.53125 -30.59375 L 14.53125 -25.046875 L 5.859375 -25.046875 L 5.859375 -18.125 L 17.859375 -18.125 C 18.140625 -18.125 18.28125 -18.007812 18.28125 -17.78125 L 18.28125 -12.921875 C 18.28125 -12.691406 18.140625 -12.578125 17.859375 -12.578125 L 5.859375 -12.578125 L 5.859375 -5.703125 Z M 14.53125 -5.703125 "/></g></g></g><g fill="#ffc416" fill-opacity="1"><g transform="translate(117.751869, 44.359184)"><g><path d="M 24.015625 -0.453125 C 24.066406 -0.359375 24.054688 -0.257812 23.984375 -0.15625 C 23.910156 -0.0507812 23.804688 0 23.671875 0 L 18.390625 0 C 18.210938 0 18.097656 -0.078125 18.046875 -0.234375 L 12.015625 -17.28125 L 6.046875 -0.234375 C 6.015625 -0.078125 5.882812 0 5.65625 0 L 0.421875 0 C 0.242188 0 0.125 -0.0507812 0.0625 -0.15625 C 0 -0.257812 -0.0078125 -0.359375 0.03125 -0.453125 L 11.625 -30.375 C 11.675781 -30.519531 11.800781 -30.59375 12 -30.59375 C 12.207031 -30.59375 12.335938 -30.519531 12.390625 -30.375 Z M 24.015625 -0.453125 "/></g></g></g><g fill="#ffc416" fill-opacity="1"><g transform="translate(142.992757, 44.359184)"><g><path d="M 24.40625 -0.578125 C 24.53125 -0.421875 24.550781 -0.285156 24.46875 -0.171875 C 24.394531 -0.0546875 24.257812 0 24.0625 0 L 17.484375 0 C 17.328125 0 17.210938 -0.0351562 17.140625 -0.109375 L 8.21875 -11.125 C 8.09375 -11 7.804688 -10.6875 7.359375 -10.1875 C 6.910156 -9.695312 6.375 -9.097656 5.75 -8.390625 C 5.125 -7.691406 4.476562 -6.96875 3.8125 -6.21875 C 3.15625 -5.46875 2.535156 -4.757812 1.953125 -4.09375 C 1.367188 -3.425781 0.894531 -2.890625 0.53125 -2.484375 C 0.175781 -2.078125 0 -1.875 0 -1.875 L 0 -30.25 C 0 -30.476562 0.140625 -30.59375 0.421875 -30.59375 L 5.46875 -30.59375 C 5.726562 -30.59375 5.859375 -30.476562 5.859375 -30.25 L 5.859375 -16.328125 L 17.359375 -30.484375 C 17.441406 -30.554688 17.554688 -30.59375 17.703125 -30.59375 L 23.9375 -30.59375 C 24.144531 -30.59375 24.285156 -30.53125 24.359375 -30.40625 C 24.441406 -30.28125 24.414062 -30.15625 24.28125 -30.03125 L 12.125 -15.03125 Z M 24.40625 -0.578125 "/></g></g></g><g fill="#ffc416" fill-opacity="1"><g transform="translate(168.730822, 44.359184)"><g><path d="M 20.890625 -0.5 C 20.941406 -0.375 20.929688 -0.257812 20.859375 -0.15625 C 20.796875 -0.0507812 20.691406 0 20.546875 0 L 15.078125 0 C 14.867188 0 14.738281 -0.078125 14.6875 -0.234375 L 9.109375 -12.359375 L 5.8125 -12.359375 L 5.8125 -0.34375 C 5.8125 -0.113281 5.671875 0 5.390625 0 L 0.375 0 C 0.125 0 0 -0.113281 0 -0.34375 L 0 -17.984375 L 10.296875 -17.984375 C 10.597656 -17.984375 11.003906 -18.003906 11.515625 -18.046875 C 12.023438 -18.097656 12.523438 -18.238281 13.015625 -18.46875 C 13.515625 -18.695312 13.9375 -19.046875 14.28125 -19.515625 C 14.625 -19.992188 14.796875 -20.65625 14.796875 -21.5 C 14.796875 -22.34375 14.609375 -23.003906 14.234375 -23.484375 C 13.867188 -23.972656 13.421875 -24.320312 12.890625 -24.53125 C 12.359375 -24.75 11.847656 -24.890625 11.359375 -24.953125 C 10.878906 -25.015625 10.523438 -25.046875 10.296875 -25.046875 L 0 -25.046875 L 0 -30.25 C 0 -30.476562 0.125 -30.59375 0.375 -30.59375 L 10.296875 -30.59375 C 10.648438 -30.59375 11.222656 -30.5625 12.015625 -30.5 C 12.804688 -30.4375 13.691406 -30.265625 14.671875 -29.984375 C 15.648438 -29.703125 16.59375 -29.242188 17.5 -28.609375 C 18.40625 -27.972656 19.148438 -27.082031 19.734375 -25.9375 C 20.316406 -24.789062 20.609375 -23.3125 20.609375 -21.5 C 20.609375 -19.9375 20.351562 -18.613281 19.84375 -17.53125 C 19.34375 -16.445312 18.664062 -15.5625 17.8125 -14.875 C 16.957031 -14.1875 16.019531 -13.648438 15 -13.265625 C 15.96875 -11.097656 16.953125 -8.957031 17.953125 -6.84375 C 18.960938 -4.726562 19.941406 -2.613281 20.890625 -0.5 Z M 20.890625 -0.5 "/></g></g></g><g fill="#ffc416" fill-opacity="1"><g transform="translate(190.720993, 44.359184)"><g><path d="M 17.359375 -24.75 L 24.484375 -24.75 L 17.09375 -14.375 L 17.09375 -0.34375 C 17.09375 -0.113281 16.953125 0 16.671875 0 L 11.671875 0 C 11.390625 0 11.25 -0.113281 11.25 -0.34375 L 11.25 -14.375 C 9.40625 -17.007812 7.546875 -19.625 5.671875 -22.21875 C 3.804688 -24.820312 1.941406 -27.425781 0.078125 -30.03125 C -0.0234375 -30.15625 -0.0390625 -30.28125 0.03125 -30.40625 C 0.113281 -30.53125 0.253906 -30.59375 0.453125 -30.59375 L 6.5 -30.59375 C 6.675781 -30.59375 6.804688 -30.554688 6.890625 -30.484375 L 14.15625 -20.265625 Z M 17.359375 -24.75 "/></g></g></g><g fill="#ffc416" fill-opacity="1"><g transform="translate(216.420815, 44.359184)"><g><path d="M 6.3125 -19.5 L 12.125 -19.5 L 12.125 -0.34375 C 12.125 -0.113281 11.972656 0 11.671875 0 L 6.734375 0 C 6.453125 0 6.3125 -0.113281 6.3125 -0.34375 Z M 0.421875 -25.359375 C 0.140625 -25.359375 0 -25.472656 0 -25.703125 L 0 -30.25 C 0 -30.476562 0.140625 -30.59375 0.421875 -30.59375 L 17.984375 -30.59375 C 18.253906 -30.59375 18.390625 -30.476562 18.390625 -30.25 L 18.390625 -25.703125 C 18.390625 -25.472656 18.253906 -25.359375 17.984375 -25.359375 Z M 0.421875 -25.359375 "/></g></g></g><g clip-path="url(#71c44ddeed)"><path fill="#ffc416" d="M 28.21875 2.433594 L 28.222656 2.433594 C 35.1875 2.4375 41.519531 5.28125 46.105469 9.871094 L 46.109375 9.863281 C 50.695312 14.449219 53.535156 20.777344 53.539062 27.746094 L 53.539062 27.757812 C 53.539062 33.804688 51.398438 39.363281 47.839844 43.726562 L 45.457031 41.082031 C 48.320312 37.394531 50.027344 32.769531 50.027344 27.757812 L 50.027344 27.746094 C 50.027344 21.746094 47.578125 16.296875 43.628906 12.347656 L 43.628906 12.339844 C 39.683594 8.394531 34.230469 5.945312 28.222656 5.945312 L 28.210938 5.945312 C 22.210938 5.945312 16.757812 8.394531 12.808594 12.34375 L 12.804688 12.34375 C 8.855469 16.289062 6.40625 21.742188 6.40625 27.75 L 6.40625 27.761719 C 6.410156 33.765625 8.859375 39.214844 12.804688 43.164062 L 12.808594 43.160156 C 16.757812 47.113281 22.210938 49.566406 28.214844 49.566406 L 28.226562 49.566406 C 32.847656 49.566406 37.140625 48.105469 40.671875 45.636719 L 38.210938 42.960938 C 35.339844 44.851562 31.90625 45.949219 28.226562 45.949219 C 22.230469 45.949219 16.898438 43.035156 13.566406 38.550781 L 23.011719 38.550781 C 24.554688 38.546875 25.953125 37.878906 26.957031 36.804688 C 27.933594 35.765625 28.542969 34.335938 28.546875 32.773438 L 28.546875 32.761719 C 28.546875 31.191406 27.9375 29.765625 26.953125 28.726562 C 25.949219 27.660156 24.550781 26.996094 23.015625 26.992188 L 23.007812 26.992188 L 19.558594 27 C 19.101562 27 18.675781 26.789062 18.359375 26.449219 L 18.355469 26.453125 C 17.613281 25.65625 17.601562 24.320312 18.359375 23.511719 C 18.675781 23.175781 19.101562 22.964844 19.550781 22.964844 L 37.007812 22.964844 C 37.460938 22.964844 37.886719 23.175781 38.207031 23.515625 L 38.210938 23.511719 C 38.953125 24.3125 38.957031 25.652344 38.207031 26.449219 C 37.890625 26.785156 37.464844 26.996094 37.011719 26.996094 L 28.464844 26.996094 L 45.675781 46.0625 L 45.601562 46.132812 C 41.066406 50.429688 34.945312 53.074219 28.226562 53.074219 L 28.214844 53.074219 C 21.242188 53.074219 14.910156 50.230469 10.324219 45.644531 L 10.324219 45.636719 C 5.746094 41.050781 2.902344 34.726562 2.898438 27.761719 L 2.898438 27.75 C 2.898438 20.785156 5.746094 14.457031 10.332031 9.867188 L 10.328125 9.863281 C 14.914062 5.277344 21.242188 2.4375 28.210938 2.433594 M 28.226562 9.453125 C 38.277344 9.453125 46.472656 17.648438 46.472656 27.703125 C 46.472656 31.480469 45.3125 34.996094 43.335938 37.914062 L 36.914062 30.769531 C 37.066406 30.769531 37.21875 30.765625 37.367188 30.753906 C 38.765625 30.65625 40.023438 30.011719 40.949219 29.027344 C 41.925781 27.984375 42.535156 26.550781 42.539062 24.988281 L 42.539062 24.972656 C 42.535156 23.414062 41.929688 21.988281 40.960938 20.945312 L 40.960938 20.941406 C 39.953125 19.863281 38.554688 19.199219 37.007812 19.195312 L 37 19.195312 L 19.550781 19.191406 C 18.007812 19.199219 16.609375 19.863281 15.605469 20.933594 C 14.632812 21.976562 14.027344 23.410156 14.023438 24.976562 L 14.023438 24.980469 C 14.023438 25.855469 14.214844 26.691406 14.554688 27.441406 C 14.6875 27.730469 14.84375 28.011719 15.015625 28.273438 L 15.027344 28.28125 C 15.203125 28.550781 15.398438 28.796875 15.605469 29.019531 L 15.605469 29.027344 C 16.613281 30.101562 18.015625 30.769531 19.558594 30.769531 L 23.007812 30.761719 L 23.015625 30.761719 C 23.476562 30.761719 23.902344 30.96875 24.214844 31.304688 C 24.5625 31.667969 24.777344 32.1875 24.777344 32.761719 L 24.777344 32.773438 C 24.777344 33.347656 24.5625 33.863281 24.21875 34.230469 C 23.902344 34.5625 23.472656 34.777344 23.007812 34.777344 L 11.410156 34.777344 C 10.488281 32.601562 9.976562 30.210938 9.976562 27.703125 C 9.976562 17.648438 18.171875 9.453125 28.226562 9.453125 Z M 28.226562 9.453125 " fill-opacity="1" fill-rule="evenodd"/></g></svg>